<svg width="180" height="180" viewBox="0 0 180 180" fill="none" xmlns="http://www.w3.org/2000/svg">
<g clip-path="url(#clip0_903_28063)">
<rect width="180" height="180" rx="30" fill="white"/>
<path d="M155.97 42.8817C154.746 42.1415 153.443 41.4665 152.075 40.8478L143.834 51.7021H149.341L155.97 42.8817ZM90.3723 76.3488H95.59L97.0421 74.4361H106.236L102.897 78.8344V92.7095H106.176L102.897 97.0286V110.018L123.723 76.9981C123.894 76.7273 124.566 76.3488 124.881 76.3488H125.12L126.573 74.4361H132.253L130.816 76.3488H142.962C143.652 76.3488 144.341 77.053 144.341 77.7573V113.236H149.897V77.7573C149.897 77.053 150.587 76.3488 151.276 76.3488H178.577C182.045 76.3488 185.091 76.7333 187.715 77.5013C190.405 78.289 192.657 79.4837 194.469 81.0851C196.214 82.627 197.674 84.2513 198.847 85.9569C200.037 87.6869 200.937 89.5045 201.547 91.4073V91.4017C202.949 95.7018 203.16 100.46 202.117 104.891L202.111 104.896C201.947 105.594 201.758 106.268 201.547 106.915L201.553 106.888C200.971 108.802 200.09 110.628 198.908 112.366C198.709 112.658 198.5 112.947 198.283 113.236H210.306C210.306 113.177 210.306 113.119 210.306 113.06V77.7573C210.306 77.053 210.996 76.3488 211.685 76.3488H212.58H260.201C260.89 76.3488 261.579 77.053 261.579 77.7573V113.236H267.136V77.7573C267.136 77.053 267.825 76.3488 268.514 76.3488H307.004C307.694 76.3488 308.383 77.053 308.383 77.7573V93.1222C308.383 93.8263 307.694 94.5306 307.004 94.5306H288.332V100.676H305.125C305.814 100.676 306.503 101.381 306.503 102.085V113.236H312.955V77.7573C312.955 77.053 313.645 76.3488 314.333 76.3488H332.773C333.462 76.3488 334.151 77.053 334.151 77.7573V99.3961H351.803V77.7573C351.803 77.053 352.493 76.3488 353.182 76.3488H371.621C372.31 76.3488 373 77.053 373 77.7573V141.778C373 142.482 372.31 143.186 371.621 143.186H353.182C352.493 143.186 351.803 142.482 351.803 141.778V136.76H334.151V141.778C334.151 142.482 333.462 143.186 332.773 143.186H314.333C313.645 143.186 312.955 142.482 312.955 141.778V136.76H308.383V141.778C308.383 142.482 307.694 143.186 307.004 143.186H268.514C267.825 143.186 267.136 142.482 267.136 141.778V136.76H261.579V141.778C261.579 142.482 260.89 143.186 260.201 143.186H241.761C241.072 143.186 240.383 142.482 240.383 141.778V136.76H226.42C225.837 137.488 225.201 138.199 224.509 138.892C222.804 140.601 220.49 141.873 217.568 142.708C210.592 144.701 205.501 143.999 198.986 143.175C198.388 143.099 197.775 142.395 197.775 141.778V136.76H171.094V141.778C171.094 142.482 170.404 143.186 169.715 143.186H151.276C150.587 143.186 149.897 142.482 149.897 141.778V136.76H144.341V141.778C144.341 142.482 143.651 143.186 142.962 143.186H125.149C124.46 143.186 123.771 142.482 123.771 141.778V136.76H106.904L103.308 142.537C103.137 142.812 102.464 143.186 102.145 143.186H83.7052C83.0163 143.186 82.3267 142.482 82.3267 141.778V117.029H80.4192L82.3267 114.517V99.4476H78.052L82.3267 93.8175V82.4982H74.9048L81.0261 74.4361H91.8245L90.3723 76.3488ZM70.1721 57.6881H73.1249L66.8252 65.9853H60.6016C57.5351 68.783 54.6086 71.5999 51.8254 74.4361H60.4089L54.2876 82.4982H44.3491C41.3992 85.8738 38.65 89.2778 36.1095 92.7095H46.5346L41.4187 99.4476H31.4137C28.6777 103.631 26.2494 107.856 24.1362 112.124H31.7941L28.0695 117.029H21.8547C20.5083 120.125 19.3252 123.243 18.3135 126.384C-10.1757 101.718 52.8996 57.0234 65.3591 51.7021H65.3536C71.309 48.5623 77.5071 45.8751 83.7793 43.6557C79.5284 50.4429 76.4581 53.4292 70.1721 57.6881ZM139.289 57.6881L132.989 65.9853H138.605L144.841 57.6881H139.289ZM147.012 38.9254C145.069 38.3127 143.025 37.7985 140.894 37.3803L130.02 51.7021H137.311L147.012 38.9254ZM125.475 57.6881L119.175 65.9853H126.466L132.766 57.6881H125.475ZM112.759 74.4361L106.638 82.4982H113.929L120.05 74.4361H112.759ZM68.9233 132.17L66.5074 135.352C69.4474 134.92 72.3312 134.331 75.1375 133.589L76.2148 132.17H68.9233ZM135.044 36.4943C132.212 36.1835 129.265 36.0185 126.226 36L114.303 51.7021H123.497L135.044 36.4943ZM109.758 57.6881L103.459 65.9853H112.653L118.952 57.6881H109.758ZM68.4273 112.124L64.7027 117.029H73.8965L77.6211 112.124H68.4273ZM53.2066 132.17L50.1935 136.139C53.3008 136.285 56.3864 136.265 59.4302 136.082L62.4004 132.17H53.2066ZM120.926 36.1069C117.13 36.2837 113.223 36.6725 109.25 37.264L98.2873 51.7021H109.085L120.926 36.1069ZM93.7424 57.6881L87.4426 65.9853H98.2408L104.541 57.6881H93.7424ZM67.1518 92.7095L62.0359 99.4476H72.834L77.95 92.7095H67.1518ZM52.4113 112.124L48.6865 117.029H59.4851L63.2097 112.124H52.4113ZM37.1906 132.17L35.6359 134.218C35.7755 134.253 35.9086 134.291 36.0492 134.327C39.1157 134.972 42.1925 135.451 45.2578 135.767L47.9887 132.17H37.1906ZM104.262 38.1066C98.8455 39.131 93.3446 40.5247 87.8711 42.2763L80.7142 51.7021H93.9391L104.262 38.1066ZM76.1693 57.6881L69.8695 65.9853H83.0944L89.3942 57.6881H76.1693ZM63.4534 74.4361L57.3321 82.4982H70.5568L76.6779 74.4361H63.4534ZM49.5787 92.7095L44.4629 99.4476H57.6878L62.8038 92.7095H49.5787ZM34.8382 112.124L31.1135 117.029H44.3385L48.0631 112.124H34.8382ZM29.003 132.17C29.9779 132.532 30.9943 132.878 32.0546 133.208L32.8424 132.17H29.003ZM231.503 113.236H240.383V94.5306H231.503V113.236ZM85.0837 79.1657V140.369H101.386L123.986 104.069C124.668 102.974 126.528 103.529 126.528 104.829V140.369H141.584V79.1657H125.629L102.676 115.557C101.989 116.646 100.14 116.091 100.14 114.798V79.1657H85.0837ZM152.654 140.369H168.337V120.651C168.337 119.947 169.026 119.242 169.715 119.242H178.577C181.791 119.242 184.59 118.891 186.972 118.189L186.967 118.194C189.279 117.512 191.196 116.498 192.716 115.153C194.293 113.758 195.604 112.292 196.646 110.759C197.672 109.251 198.432 107.685 198.925 106.062L198.93 106.035C200.913 99.956 200.225 92.8521 196.596 87.5746C195.547 86.0495 194.238 84.5935 192.671 83.209C191.172 81.8844 189.268 80.8837 186.961 80.2084C184.587 79.5136 181.792 79.1657 178.577 79.1657H152.654V140.369ZM171.094 93.2503V105.158C173.395 105.158 176.775 105.493 178.68 104.131C181.887 101.838 181.915 97.0124 179.104 94.4985C177.29 92.8771 173.47 93.2503 171.094 93.2503ZM168.337 91.8418C168.337 91.1377 169.026 90.4334 169.715 90.4334C173.215 90.4334 178.149 89.9141 180.914 92.3859C185.139 96.1645 185.108 102.978 180.263 106.441C177.469 108.439 173.017 107.975 169.715 107.975C169.026 107.975 168.337 107.271 168.337 106.566V91.8418ZM213.063 79.1657V113.06C213.063 115.004 212.963 116.818 212.762 118.501C212.561 120.181 212.253 121.746 211.841 123.191C211.351 124.903 210.37 126.208 208.9 127.103C207.525 127.94 205.751 128.394 203.577 128.461C203.572 128.461 203.41 128.451 203.405 128.451C203.124 128.422 202.817 128.386 202.486 128.342C202.177 128.302 201.875 128.258 201.584 128.211C201.244 128.156 200.923 128.093 200.625 128.023C200.594 128.016 200.563 128.008 200.532 128V140.578C201 140.671 201.467 140.774 201.943 140.843L201.975 140.849C206.422 141.606 212.973 141.105 216.835 140.001C219.298 139.297 221.214 138.26 222.581 136.889C224.024 135.444 225.197 133.918 226.098 132.311C226.991 130.72 227.616 129.054 227.973 127.315L227.978 127.299C228.145 126.528 228.284 125.749 228.393 124.963C228.494 124.234 228.567 123.471 228.612 122.677C228.701 121.092 228.746 119.654 228.746 118.365V93.1222C228.746 92.4179 229.435 91.7137 230.125 91.7137H241.761C242.451 91.7137 243.14 92.4179 243.14 93.1222V140.369H258.822V79.1657H213.063ZM269.893 140.369H305.626V127.821H286.954C286.265 127.821 285.575 127.117 285.575 126.413V116.169C285.575 115.465 286.265 114.761 286.954 114.761H303.746V103.493H286.954C286.265 103.493 285.575 102.789 285.575 102.085V93.1222C285.575 92.4179 286.265 91.7137 286.954 91.7137H305.626V79.1657H269.893V140.369ZM315.712 140.369H331.395V116.169C331.395 115.465 332.084 114.761 332.773 114.761H353.182C353.871 114.761 354.56 115.465 354.56 116.169V140.369H370.243V79.1657H354.56V100.805C354.56 101.509 353.871 102.213 353.182 102.213H332.773C332.084 102.213 331.395 101.509 331.395 100.805V79.1657H315.712V140.369Z" fill="#2447ED" stroke="#2447ED" stroke-width="0.0762" stroke-miterlimit="22.9256" stroke-linejoin="round"/>
</g>
<defs>
<clipPath id="clip0_903_28063">
<rect width="180" height="180" rx="30" fill="white"/>
</clipPath>
</defs>
</svg>
