<svg width="18" height="18" viewBox="0 0 18 18" fill="none" xmlns="http://www.w3.org/2000/svg">
<path fill-rule="evenodd" clip-rule="evenodd" d="M12.6978 0.666626C13.2434 0.666626 13.7664 0.884476 14.1484 1.26948L16.7325 3.85356C17.1172 4.23829 17.3334 4.7601 17.3334 5.30419C17.3334 5.84829 17.1172 6.37009 16.7325 6.75482L7.29791 16.1864C6.71584 16.8579 5.89074 17.2704 4.94549 17.3352H0.666656V16.5019L0.669363 12.9894C0.740355 12.1107 1.14888 11.2936 1.77207 10.7445L11.2461 1.27048C11.6303 0.883984 12.1528 0.666626 12.6978 0.666626ZM4.88664 15.6707C5.33183 15.6391 5.74623 15.4319 6.07899 15.0513L12.3806 8.74972L9.25193 5.62095L2.91341 11.958C2.57578 12.2566 2.36691 12.6743 2.33332 13.0565V15.6691L4.88664 15.6707ZM10.4306 4.44258L13.5591 7.57121L15.554 5.57631C15.6262 5.50414 15.6667 5.40626 15.6667 5.30419C15.6667 5.20213 15.6262 5.10424 15.554 5.03207L12.9676 2.44567C12.8962 2.37375 12.7991 2.33329 12.6978 2.33329C12.5965 2.33329 12.4993 2.37375 12.428 2.44567L10.4306 4.44258Z" fill="#121212"/>
</svg>
