<svg width="32" height="39" viewBox="0 0 32 39" fill="none" xmlns="http://www.w3.org/2000/svg">
<path d="M1 1H31V31.2038L24.1416 38H1V1Z" stroke="#2447ED" stroke-width="2"/>
<path d="M5 4.85H4.85V5V13V13.15H5H6.0266H6.1766V13V9.94552H8.44483C9.35804 9.94552 10.0881 9.71552 10.5916 9.27068C11.0978 8.82349 11.3553 8.1767 11.3553 7.38655C11.3553 6.60695 11.0974 5.96581 10.5913 5.5217C10.0879 5.08 9.35806 4.85 8.44483 4.85H5ZM12.831 4.85H12.681V5V13V13.15H12.831H15.8766C17.1591 13.15 18.1443 12.7375 18.8071 11.9994C19.4676 11.2637 19.7908 10.2238 19.7908 9C19.7908 7.77076 19.4677 6.73068 18.807 5.99631C18.144 5.25949 17.1588 4.85 15.8766 4.85H12.831ZM27 6.06877H27.15V5.91877V5V4.85H27H21.308H21.158V5V13V13.15H21.308H22.3347H22.4847V13V9.58697H26.1103H26.2603V9.43697V8.51821V8.36821H26.1103H22.4847V6.06877H27ZM6.1766 8.74916V6.04636H8.27373C8.9532 6.04636 9.38393 6.18654 9.64419 6.41175C9.89973 6.63288 10.0172 6.95936 10.0172 7.39776C10.0172 7.83615 9.89973 8.16264 9.64419 8.38377C9.38393 8.60898 8.9532 8.74916 8.27373 8.74916H6.1766ZM14.0076 11.9312V6.06877H15.8766C16.8235 6.06877 17.4584 6.40516 17.8611 6.92517C18.2685 7.45138 18.4528 8.18474 18.4528 9C18.4528 9.81526 18.2685 10.5486 17.8611 11.0748C17.4584 11.5948 16.8235 11.9312 15.8766 11.9312H14.0076Z" fill="#2447ED" stroke="#2447ED" stroke-width="0.3"/>
</svg>
