<svg width="321" height="321" viewBox="0 0 321 321" fill="none" xmlns="http://www.w3.org/2000/svg">
<circle cx="160.5" cy="160.5" r="160.5" fill="white"/>
<path d="M219.13 131.837L152.842 100.646L188.131 83L254.418 114.192L219.13 131.837ZM168.576 100.46L219.034 124.208L238.685 114.384L188.227 90.6365L168.576 100.46Z" fill="#E0E0E0"/>
<path d="M136.721 173.042L70.4337 141.85L105.722 124.204L172.009 155.396L136.721 173.042ZM86.1669 141.665L136.625 165.412L156.276 155.588L105.818 131.841L86.1669 141.665Z" fill="#E0E0E0"/>
<path d="M102.288 131.837L67 114.192L133.288 83L168.576 100.646L102.288 131.837ZM82.7332 114.381L102.384 124.204L152.842 100.457L133.191 90.6331L82.7332 114.381Z" fill="#E0E0E0"/>
<path d="M188.131 173.042L152.842 155.396L219.13 124.204L254.418 141.85L188.131 173.042ZM168.576 155.585L188.227 165.409L238.685 141.661L219.034 131.837L168.576 155.585Z" fill="#E0E0E0"/>
<path d="M217.619 131.13L160.709 104.347L103.799 131.13L100.873 124.915L160.709 96.7589L220.545 124.915L217.619 131.13Z" fill="#E0E0E0"/>
<path fill-rule="evenodd" clip-rule="evenodd" d="M98.9025 208.6L161.567 237.844L165.433 236.04L222.516 209.178V155.492H215.648V204.817L164.143 229.056V157.672L220.545 131.13L217.619 124.915L160.709 151.696L103.799 124.915L100.873 131.13L157.275 157.672V229.056L105.77 204.817V152.058H98.9025V208.6Z" fill="#E0E0E0"/>
</svg>
