<svg width="61" height="61" viewBox="0 0 61 61" fill="none" xmlns="http://www.w3.org/2000/svg">
<path d="M59.9948 23.5658C59.3299 21.1733 58.3347 18.0518 56.5198 15.1291C56.3664 14.8817 56.0672 14.7678 55.7869 14.8494L50.2146 16.4868C50.1058 16.3347 49.9951 16.1832 49.8818 16.0323C48.4619 14.1468 46.7927 12.4925 44.9169 11.1082L46.4916 5.85452C46.522 5.75222 46.5486 5.65057 46.5764 5.54762L46.6101 5.42006C46.6858 5.141 46.5674 4.84575 46.32 4.69682C43.609 3.05999 40.8792 1.94632 37.9753 1.29171C37.7001 1.22761 37.4158 1.35323 37.2734 1.59733C36.3896 3.11308 35.5841 4.62301 34.844 6.02934L34.4866 6.71179C34.3027 6.68136 34.1182 6.65222 33.9324 6.62632C31.6824 6.30841 29.4117 6.30711 27.1753 6.62244L24.3878 1.40049C24.2512 1.14409 23.9611 1.00941 23.6743 1.07416C20.9724 1.68279 18.3015 2.73172 15.268 4.37503C15.0065 4.51747 14.875 4.81985 14.9501 5.10862C15.4409 6.98179 16.0049 8.8051 16.6349 10.7929C16.4219 10.9424 16.2108 11.0959 16.0016 11.2539C14.1259 12.6667 12.4787 14.3249 11.0996 16.1896L5.82451 14.5547C5.18609 14.3553 4.86948 14.4719 4.52242 15.0248C3.7694 16.2201 3.19962 17.3266 2.78199 18.4086L2.73343 18.5348C2.66803 18.7058 2.60393 18.8773 2.52365 19.0444C1.97588 20.1891 1.56084 21.4226 1.28825 22.7124C1.14516 23.3942 1.27918 23.6849 1.88911 24.0106L6.69408 26.572C6.65847 26.7818 6.62674 26.9922 6.59631 27.2046C6.27192 29.5058 6.27775 31.8263 6.61315 34.1087C4.87401 34.9964 3.08113 35.9145 1.33228 36.8897C1.07134 37.0353 0.943141 37.341 1.02408 37.6297L1.23127 38.3756C1.3899 38.9493 1.54595 39.5126 1.71106 40.0746C1.84249 40.5188 1.96681 40.9183 2.15264 41.3133C2.67969 42.4315 3.21775 43.5037 3.67358 44.4043C3.85681 44.7676 4.05818 45.1217 4.26149 45.4824L4.52501 45.9518C4.67135 46.2153 4.97955 46.3423 5.26897 46.2613L10.8775 44.662C10.9908 44.8207 11.1054 44.9774 11.2232 45.1341C12.6814 47.0726 14.4011 48.7651 16.3396 50.1702C15.7375 52.0582 15.1612 53.9366 14.6257 55.7625C14.5422 56.0454 14.6607 56.3472 14.9119 56.5C17.3393 57.9659 20.0594 59.1054 23.2288 59.986C23.2865 60.0015 23.3447 60.0093 23.4024 60.0093C23.6355 60.0093 23.8569 59.8831 23.9722 59.67L26.9959 54.0719C27.047 53.9774 27.0736 53.8718 27.0736 53.7643V45.3801C27.0736 45.3581 27.0632 45.3393 27.0606 45.3179C27.0561 45.2739 27.0477 45.2318 27.0347 45.1897C27.0218 45.1489 27.0076 45.1127 26.9881 45.0764C26.9694 45.0408 26.9473 45.0091 26.9208 44.9774C26.8923 44.9424 26.8619 44.912 26.8269 44.8835C26.8101 44.8699 26.8004 44.8511 26.7822 44.8394C24.4442 43.2965 22.988 40.4825 22.9822 37.4963C22.975 33.9566 24.8981 30.8357 27.7502 29.5984L27.7645 37.4879C27.7651 37.6602 27.8331 37.8246 27.9548 37.9451C28.0765 38.0668 28.2404 38.1341 28.4119 38.1341C28.4126 38.1341 28.4126 38.1341 28.4132 38.1341L32.4166 38.1263C32.774 38.1257 33.0635 37.8356 33.0628 37.4776L33.0492 29.588C35.9059 30.815 37.8393 33.9287 37.8458 37.4692C37.8516 40.502 36.4919 43.2188 34.2089 44.7378C34.1914 44.7501 34.181 44.7682 34.1655 44.7812C34.1299 44.8097 34.1001 44.8401 34.0716 44.8757C34.0457 44.9074 34.0237 44.9398 34.0042 44.9748C33.9848 45.011 33.9699 45.0473 33.9583 45.0874C33.9447 45.1302 33.9363 45.1723 33.9317 45.2163C33.9298 45.237 33.9194 45.2558 33.9194 45.2771V53.7889C33.9194 53.8958 33.946 54.0007 33.9965 54.0952L36.9587 59.6241C37.0707 59.8326 37.3407 59.9653 37.5777 59.9672C37.6347 59.9692 37.7208 59.9737 37.8419 59.9478L38.1112 59.8837C38.356 59.8267 38.6014 59.7685 38.8429 59.6953C40.8456 59.0789 42.8851 58.2436 44.904 57.2128C45.1286 57.0989 45.354 56.9888 45.5806 56.8787L45.9484 56.6994C45.9853 56.6813 46.0656 56.6262 46.0973 56.6016L46.1594 56.5556C46.3958 56.3841 46.4884 56.0765 46.3854 55.8033L46.333 55.6718C46.3129 55.6213 46.2902 55.5721 46.2773 55.5261C45.7321 53.4827 45.24 51.7675 44.7427 50.1766C44.8638 50.0899 44.983 50.0018 45.1021 49.9131C47.0484 48.4466 48.7461 46.7191 50.1551 44.7721L55.4696 46.462C55.546 46.4847 55.625 46.5041 55.6923 46.5203L55.7597 46.5371C56.0381 46.6116 56.3346 46.4931 56.4829 46.2451C58.1955 43.3923 59.3169 40.6185 59.912 37.7644C59.9709 37.484 59.8388 37.1998 59.5869 37.0632L54.4608 34.2809C54.477 34.1748 54.4932 34.0686 54.5087 33.9617C54.8351 31.6522 54.8273 29.3206 54.4867 27.0246L59.6705 24.313C59.9418 24.1712 60.0764 23.8597 59.9948 23.5658ZM53.476 26.0929C53.2274 26.223 53.0907 26.4976 53.1374 26.774C53.5278 29.0888 53.5576 31.4456 53.2287 33.7785C53.1924 34.0265 53.1529 34.2725 53.1102 34.5205C53.0629 34.7944 53.1956 35.0676 53.4397 35.1997L58.5432 37.9697C57.9877 40.3744 57.0294 42.7332 55.6256 45.1528L50.0974 43.3943C49.8268 43.3088 49.5309 43.4079 49.369 43.6429C47.9866 45.6371 46.2889 47.3989 44.3245 48.8791C44.0907 49.0546 43.8525 49.2235 43.6142 49.39C43.3817 49.5525 43.2814 49.8471 43.3675 50.1171C43.8965 51.7805 44.4132 53.5643 44.992 55.7262C44.7673 55.8356 44.5433 55.9451 44.318 56.059C42.3639 57.0568 40.3936 57.8642 38.4648 58.4579C38.2738 58.5162 38.0789 58.5622 37.8846 58.6075L35.2157 53.6271V45.61C37.6845 43.8184 39.1479 40.8056 39.1414 37.4672C39.133 33.0209 36.4342 29.1477 32.5778 28.0496C32.5545 28.0431 32.5306 28.0502 32.5066 28.0463C32.4704 28.0399 32.4386 28.025 32.4004 28.025C32.3998 28.025 32.3998 28.025 32.3991 28.025C32.3758 28.025 32.3558 28.036 32.3324 28.0386C32.2955 28.0425 32.2632 28.0502 32.2276 28.0599C32.1693 28.0768 32.1168 28.1001 32.0663 28.1312C32.0482 28.1422 32.0262 28.1435 32.0094 28.1564C31.9983 28.1648 31.9945 28.1784 31.9841 28.1868C31.9349 28.2289 31.896 28.2794 31.8624 28.3351C31.8475 28.3584 31.8281 28.3778 31.8164 28.4031C31.7776 28.486 31.753 28.5766 31.753 28.6744L31.7672 36.834L29.0588 36.8392L29.0439 28.6796C29.0439 28.5818 29.0186 28.4912 28.9791 28.4083C28.9675 28.3837 28.9494 28.3655 28.9351 28.3422C28.8995 28.2866 28.8613 28.2354 28.8108 28.1933C28.8004 28.1849 28.7965 28.1713 28.7855 28.1629C28.7687 28.1499 28.7467 28.1493 28.7286 28.1376C28.6787 28.1072 28.6263 28.0839 28.568 28.0677C28.5317 28.0573 28.4987 28.0502 28.4605 28.0463C28.4385 28.0437 28.4197 28.0334 28.3964 28.0334C28.3958 28.0334 28.3958 28.0334 28.3951 28.0334C28.3576 28.0334 28.3252 28.0489 28.2889 28.0548C28.265 28.0586 28.2404 28.0515 28.217 28.0586C24.3645 29.1717 21.6788 33.054 21.6878 37.5009C21.6943 40.7901 23.2554 43.9006 25.7786 45.7161V53.6012L23.0793 58.5946C20.4207 57.8208 18.0988 56.8515 16.0101 55.642C16.5455 53.833 17.1192 51.9753 17.7175 50.1125C17.8049 49.8412 17.7039 49.5453 17.4701 49.3828C15.4843 48.003 13.7309 46.3112 12.2573 44.3525C12.0559 44.0851 11.8642 43.8164 11.6758 43.5432C11.5185 43.3146 11.2329 43.213 10.9649 43.2874L5.40494 44.8725L5.38746 44.8414C5.19386 44.4995 5.00286 44.1615 4.82868 43.8171C4.37609 42.9235 3.84386 41.861 3.32393 40.7577C3.17631 40.4463 3.06883 40.096 2.95357 39.7049C2.79041 39.1507 2.63631 38.5932 2.47962 38.026L2.40839 37.7696C4.05494 36.865 5.74099 36.0039 7.37653 35.1693L7.62063 35.045C7.87185 34.9168 8.01171 34.6403 7.96444 34.3612C7.57919 32.0575 7.55005 29.7091 7.87833 27.382C7.92818 27.0311 7.98516 26.6834 8.05056 26.3383C8.103 26.0599 7.96897 25.7801 7.71905 25.6468L2.57091 22.9027C2.82278 21.7412 3.19962 20.6301 3.6917 19.6006C3.78688 19.4024 3.86652 19.1965 3.94422 18.9926L3.99019 18.8715C4.36509 17.9022 4.87595 16.9032 5.54933 15.8219L11.1598 17.561C11.4298 17.6432 11.7179 17.5455 11.8798 17.3176C13.2362 15.4068 14.8854 13.7137 16.7819 12.286C17.1024 12.0438 17.428 11.8127 17.7589 11.5899C17.9978 11.4293 18.1021 11.1309 18.0153 10.857C17.3886 8.88474 16.8252 7.08863 16.3351 5.27244C18.8978 3.9192 21.1919 3.01272 23.4814 2.44941L26.2468 7.63316C26.3763 7.87791 26.6501 8.01388 26.9214 7.9692C29.1773 7.60661 31.4752 7.58524 33.7517 7.90769C34.0787 7.95366 34.4031 8.0087 34.7275 8.06762C35.0027 8.11553 35.2843 7.98086 35.4158 7.72963L35.9907 6.63086C36.6557 5.36697 37.3744 4.01956 38.1533 2.66373C40.5989 3.26265 42.9227 4.21251 45.2297 5.55539L43.5443 11.1768C43.4646 11.4429 43.563 11.7304 43.7903 11.891C45.712 13.252 47.413 14.9076 48.8465 16.8099C49.044 17.0728 49.2337 17.3389 49.4195 17.607C49.5788 17.8368 49.8669 17.9378 50.1343 17.8601L55.6748 16.2324C57.1259 18.6954 58.0012 21.2963 58.606 23.4084L53.476 26.0929Z" fill="#2447ED" stroke="#2447ED"/>
<path d="M30.4066 18.3749C26.9011 18.3749 23.5685 19.4827 20.7701 21.5786C20.4839 21.7929 20.4257 22.1989 20.64 22.4851C20.7675 22.6547 20.9618 22.7441 21.1593 22.7441C21.2939 22.7441 21.4305 22.702 21.5471 22.6146C24.1202 20.6877 27.1834 19.6692 30.4072 19.6692C33.6311 19.6692 36.6943 20.6877 39.2668 22.6146C39.5536 22.8296 39.9583 22.7706 40.1732 22.4844C40.3875 22.1983 40.3293 21.7923 40.0431 21.578C37.244 19.4827 33.9127 18.3749 30.4066 18.3749Z" fill="#2447ED" stroke="#2447ED"/>
<path d="M30.4068 22.291C28.5731 22.291 26.8294 22.8711 25.3642 23.9673C25.0786 24.1816 25.0197 24.5876 25.234 24.8738C25.4483 25.1599 25.8537 25.2189 26.1405 25.0046C27.3798 24.0767 28.8547 23.5866 30.4068 23.5866C31.9581 23.5866 33.4331 24.0767 34.6737 25.0046C34.7902 25.0913 34.9262 25.1334 35.0609 25.1334C35.2583 25.1334 35.4526 25.0434 35.5801 24.8738C35.7945 24.5876 35.7355 24.1816 35.4494 23.9673C33.9828 22.8705 32.2398 22.291 30.4068 22.291Z" fill="#2447ED" stroke="#2447ED"/>
<path d="M30.4063 14.0905C25.5774 14.0905 20.9874 15.6166 17.1329 18.5038C16.8467 18.7181 16.7884 19.124 17.0028 19.4102C17.2177 19.6958 17.6231 19.7547 17.9092 19.5404C21.5377 16.8222 25.859 15.3855 30.4063 15.3855C34.9536 15.3855 39.2742 16.8222 42.9027 19.5404C43.0193 19.6278 43.1559 19.6699 43.2906 19.6699C43.488 19.6699 43.6816 19.5805 43.8098 19.4109C44.0242 19.1247 43.9659 18.7187 43.6797 18.5044C39.8246 15.6166 35.2352 14.0905 30.4063 14.0905Z" fill="#2447ED" stroke="#2447ED"/>
</svg>
