<svg width="81" height="74" viewBox="0 0 81 74" fill="none" xmlns="http://www.w3.org/2000/svg">
<path d="M6.54927 19.5062C4.50976 28.2338 9.84015 23.7347 2.63045 29.7312L5.73347 35.4946C14.8706 32.773 8.21081 34.78 16.7605 37.74C17.6763 38.0681 17.9191 40.9978 18.1823 43.0044L24.7943 43.1511C26.8441 33.962 25.3102 40.7 32.2089 34.8505C32.9914 34.2522 35.732 35.5443 37.5636 36.2005L40.9188 30.5803C34.1356 24.2735 39.1077 29.001 37.4568 20.1916C37.3269 19.1114 39.6675 17.6242 41.2358 16.2738L38.1328 10.5103C29.1461 13.3892 35.6555 11.2249 27.1024 8.41881C26.19 7.93685 26.0976 5.16444 25.684 3.00054L19.0719 2.8539C17.0222 12.043 18.5527 5.45884 11.6573 11.1545C10.8715 11.9066 8.28806 10.4641 6.3027 9.80444L2.94745 15.4247C4.45786 16.6894 6.88067 18.4362 6.54927 19.5062ZM22.2537 12.0051C12.4125 11.7868 7.38326 23.5263 13.9957 30.5989C20.7619 37.6748 32.7077 33.1686 32.9259 23.3232C33.0622 17.1699 28.2507 12.1381 22.2537 12.0051ZM12.9901 13.4927C21.3205 5.52022 35.1839 11.6762 34.9249 23.3676C34.6692 34.9051 20.5468 40.4404 12.5777 32.1065C7.61581 26.9175 7.79987 18.6105 12.9901 13.4927ZM4.17116 22.6855C4.19502 21.6087 4.21888 20.5319 4.54687 19.6157C-0.729367 14.7275 -0.633545 17.3461 4.95628 8.08158C5.75239 6.86797 8.33578 8.31044 10.7756 9.288L16.2257 6.33069C16.8987 3.72916 16.9635 0.806323 18.3474 0.837015C29.265 1.07913 27.1429 -0.353109 28.3734 6.60009L33.6872 9.79611C40.5041 7.63866 38.2214 6.51067 43.5492 16.0173C44.1404 17.1078 41.646 18.5915 39.6061 20.3932L39.4732 26.3927C44.7494 31.2809 44.6502 28.8161 38.91 37.9234C38.2677 39.1404 35.6843 37.6979 33.0907 36.717L27.6406 39.6743C27.1213 42.2792 26.9028 45.1986 25.6726 45.1714C14.7551 44.9292 16.72 46.5119 15.4929 39.4049L10.1791 36.2089C3.36218 38.3663 5.64485 39.4943 0.47087 29.9911C-0.274113 28.8972 2.22027 27.4134 4.41393 25.6152C4.12685 24.6854 4.15071 23.6085 4.17116 22.6855Z" fill="#2447ED"/>
<path d="M43.4863 73.8422C34.6498 73.8422 27.4863 66.6756 27.4863 57.8351C27.4863 48.9947 34.6498 41.8281 43.4863 41.8281C52.3229 41.8281 59.4863 48.9947 59.4863 57.8351C59.4863 66.6756 52.3229 73.8422 43.4863 73.8422ZM43.4863 71.959C51.2833 71.959 57.604 65.6355 57.604 57.8351C57.604 50.0347 51.2833 43.7112 43.4863 43.7112C35.6894 43.7112 29.3687 50.0347 29.3687 57.8351C29.3687 65.6355 35.6894 71.959 43.4863 71.959ZM43.4863 63.4847C40.3675 63.4847 37.8393 60.9553 37.8393 57.8351C37.8393 54.715 40.3675 52.1856 43.4863 52.1856C46.6051 52.1856 49.1334 54.715 49.1334 57.8351C49.1334 60.9553 46.6051 63.4847 43.4863 63.4847ZM43.4863 61.6015C45.5655 61.6015 47.251 59.9152 47.251 57.8351C47.251 55.755 45.5655 54.0687 43.4863 54.0687C41.4071 54.0687 39.7216 55.755 39.7216 57.8351C39.7216 59.9152 41.4071 61.6015 43.4863 61.6015ZM43.4863 50.7732C41.9269 50.7732 40.6628 49.5085 40.6628 47.9484C40.6628 46.3883 41.9269 45.1236 43.4863 45.1236C45.0457 45.1236 46.3099 46.3883 46.3099 47.9484C46.3099 49.5085 45.0457 50.7732 43.4863 50.7732ZM43.4863 48.89C44.0061 48.89 44.4275 48.4684 44.4275 47.9484C44.4275 47.4284 44.0061 47.0068 43.4863 47.0068C42.9665 47.0068 42.5452 47.4284 42.5452 47.9484C42.5452 48.4684 42.9665 48.89 43.4863 48.89ZM48.4777 48.8468C49.5803 47.7436 51.3681 47.7436 52.4707 48.8468C53.5734 49.9499 53.5734 51.7384 52.4707 52.8416C51.3681 53.9447 49.5803 53.9447 48.4777 52.8416C47.375 51.7384 47.375 49.9499 48.4777 48.8468ZM51.1397 51.5099C51.5073 51.1422 51.5073 50.5461 51.1397 50.1784C50.7722 49.8106 50.1762 49.8106 49.8087 50.1784C49.4411 50.5461 49.4411 51.1422 49.8087 51.5099C50.1762 51.8777 50.7722 51.8777 51.1397 51.5099ZM50.5452 57.8351C50.5452 56.275 51.8093 55.0103 53.3687 55.0103C54.9281 55.0103 56.1922 56.275 56.1922 57.8351C56.1922 59.3952 54.9281 60.6599 53.3687 60.6599C51.8093 60.6599 50.5452 59.3952 50.5452 57.8351ZM52.4275 57.8351C52.4275 58.3551 52.8489 58.7767 53.3687 58.7767C53.8885 58.7767 54.3099 58.3551 54.3099 57.8351C54.3099 57.3151 53.8885 56.8935 53.3687 56.8935C52.8489 56.8935 52.4275 57.3151 52.4275 57.8351ZM48.4777 62.8287C49.5803 61.7255 51.3681 61.7255 52.4707 62.8287C53.5734 63.9318 53.5734 65.7203 52.4707 66.8235C51.3681 67.9266 49.5803 67.9266 48.4777 66.8235C47.375 65.7203 47.375 63.9318 48.4777 62.8287ZM49.8087 64.1603C49.4411 64.528 49.4411 65.1241 49.8087 65.4919C50.1762 65.8596 50.7722 65.8596 51.1397 65.4919C51.5073 65.1241 51.5073 64.528 51.1397 64.1603C50.7722 63.7926 50.1762 63.7926 49.8087 64.1603ZM43.4863 64.897C45.0457 64.897 46.3099 66.1617 46.3099 67.7218C46.3099 69.2819 45.0457 70.5466 43.4863 70.5466C41.9269 70.5466 40.6628 69.2819 40.6628 67.7218C40.6628 66.1617 41.9269 64.897 43.4863 64.897ZM43.4863 66.7802C42.9665 66.7802 42.5452 67.2018 42.5452 67.7218C42.5452 68.2418 42.9665 68.6634 43.4863 68.6634C44.0061 68.6634 44.4275 68.2418 44.4275 67.7218C44.4275 67.2018 44.0061 66.7802 43.4863 66.7802ZM38.495 66.8235C37.3923 67.9266 35.6046 67.9266 34.5019 66.8235C33.3993 65.7203 33.3993 63.9318 34.5019 62.8287C35.6046 61.7255 37.3923 61.7255 38.495 62.8287C39.5976 63.9318 39.5976 65.7203 38.495 66.8235ZM35.8329 64.1603C35.4654 64.528 35.4654 65.1241 35.8329 65.4919C36.2005 65.8596 36.7964 65.8596 37.164 65.4919C37.5315 65.1241 37.5315 64.528 37.164 64.1603C36.7964 63.7926 36.2005 63.7926 35.8329 64.1603ZM36.4275 57.8351C36.4275 59.3952 35.1634 60.6599 33.604 60.6599C32.0446 60.6599 30.7804 59.3952 30.7804 57.8351C30.7804 56.275 32.0446 55.0103 33.604 55.0103C35.1634 55.0103 36.4275 56.275 36.4275 57.8351ZM34.5452 57.8351C34.5452 57.3151 34.1238 56.8935 33.604 56.8935C33.0842 56.8935 32.6628 57.3151 32.6628 57.8351C32.6628 58.3551 33.0842 58.7767 33.604 58.7767C34.1238 58.7767 34.5452 58.3551 34.5452 57.8351ZM34.5019 52.8416C33.3993 51.7384 33.3993 49.9499 34.5019 48.8468C35.6046 47.7436 37.3923 47.7436 38.495 48.8468C39.5976 49.9499 39.5976 51.7384 38.495 52.8416C37.3923 53.9447 35.6046 53.9447 34.5019 52.8416ZM37.164 50.1784C36.7964 49.8106 36.2005 49.8106 35.8329 50.1784C35.4654 50.5461 35.4654 51.1422 35.8329 51.5099C36.2005 51.8777 36.7964 51.8777 37.164 51.5099C37.5315 51.1422 37.5315 50.5461 37.164 50.1784Z" fill="#2447ED"/>
<circle cx="64.4863" cy="27.4709" r="3" stroke="#2447ED" stroke-width="2"/>
<circle cx="64.4863" cy="27.4709" r="15" stroke="#2447ED" stroke-width="2"/>
<path d="M59.4863 18.6812C59.4863 17.4605 60.4759 16.4709 61.6967 16.4709H67.276C68.4967 16.4709 69.4863 17.4605 69.4863 18.6812C69.4863 20.0471 68.2599 21.086 66.9126 20.8615L65.393 20.6082C64.7927 20.5082 64.1799 20.5082 63.5796 20.6082L62.06 20.8615C60.7128 21.086 59.4863 20.0471 59.4863 18.6812Z" stroke="#2447ED" stroke-width="2"/>
<path d="M59.4863 36.2606C59.4863 37.4813 60.4759 38.4709 61.6967 38.4709H67.276C68.4967 38.4709 69.4863 37.4813 69.4863 36.2606C69.4863 34.8947 68.2599 33.8558 66.9126 34.0803L65.393 34.3336C64.7927 34.4336 64.1799 34.4336 63.5796 34.3336L62.06 34.0803C60.7128 33.8558 59.4863 34.8947 59.4863 36.2606Z" stroke="#2447ED" stroke-width="2"/>
<path d="M73.276 22.4709C74.4967 22.4709 75.4863 23.4605 75.4863 24.6812L75.4863 30.2606C75.4863 31.4813 74.4967 32.4709 73.276 32.4709C71.9101 32.4709 70.8712 31.2444 71.0957 29.8972L71.349 28.3776C71.4491 27.7773 71.4491 27.1645 71.349 26.5642L71.0957 25.0446C70.8712 23.6973 71.9101 22.4709 73.276 22.4709Z" stroke="#2447ED" stroke-width="2"/>
<path d="M55.6967 22.4709C54.4759 22.4709 53.4863 23.4605 53.4863 24.6812L53.4863 30.2606C53.4863 31.4813 54.4759 32.4709 55.6967 32.4709C57.0625 32.4709 58.1015 31.2444 57.8769 29.8972L57.6237 28.3776C57.5236 27.7773 57.5236 27.1645 57.6237 26.5642L57.8769 25.0446C58.1015 23.6973 57.0625 22.4709 55.6967 22.4709Z" stroke="#2447ED" stroke-width="2"/>
</svg>
