<svg width="49" height="72" viewBox="0 0 49 72" fill="none" xmlns="http://www.w3.org/2000/svg">
<path d="M40.915 59.3747C40.5643 59.3747 40.2837 59.1642 40.1434 58.8135L32.0762 24.5806H16.924L8.85679 58.7433C8.78664 59.1642 8.36574 59.3747 7.94485 59.3045C7.52395 59.2344 7.31351 58.8135 7.38365 58.3926L15.7314 23.0374H33.3389L41.6866 58.3926C41.7568 58.8135 41.5463 59.2344 41.1254 59.3045C41.0553 59.3747 40.9851 59.3747 40.915 59.3747Z" fill="#2447ED" stroke="#2447ED" stroke-width="0.6"/>
<path d="M29.8313 24.5806C29.4104 24.5806 29.0597 24.2299 29.0597 23.809V17.2851H19.9403V23.809C19.9403 24.2299 19.5895 24.5806 19.1686 24.5806C18.7477 24.5806 18.397 24.2299 18.397 23.809V15.7418H30.5328V23.809C30.6029 24.2299 30.2522 24.5806 29.8313 24.5806Z" fill="#2447ED" stroke="#2447ED" stroke-width="0.6"/>
<path d="M26.3942 14.6896L26.2539 13.2866C25.9733 10.4105 27.236 7.81496 29.6912 6.27168C31.6554 5.00899 33.9001 4.79854 35.4434 5.78063C36.5658 6.48213 37.1971 7.74481 36.9867 8.93735C36.7763 10.1299 35.8643 11.0418 34.3912 11.3926C33.83 11.5329 33.2688 11.603 32.7777 11.603C31.4449 11.6732 30.0419 11.8135 27.5165 13.8478L26.3942 14.6896ZM33.1986 6.69257C32.3568 6.69257 31.3748 6.97317 30.4628 7.53436C28.9195 8.51645 28.0076 9.98959 27.7971 11.6732C29.9718 10.2 31.4449 10.1299 32.7076 9.98959C33.1986 9.98959 33.6195 9.91944 34.0404 9.84929C34.8822 9.63884 35.3733 9.21795 35.5136 8.65675C35.5837 8.09556 35.233 7.39407 34.6718 7.04332C34.2509 6.76272 33.7598 6.69257 33.1986 6.69257Z" fill="#2447ED" stroke="#2447ED" stroke-width="0.6"/>
<path d="M21.9747 14.6895L20.9225 13.8478C19.0986 12.3746 18.1165 12.3045 17.1344 12.2343C16.7837 12.2343 16.3628 12.1642 15.9419 12.094C14.7494 11.8134 14.0479 11.1119 13.9076 10.1298C13.7673 9.14776 14.2583 8.16567 15.1001 7.60447C16.2926 6.90298 18.0464 7.04328 19.5897 7.95522C21.4837 9.14776 22.3956 11.1119 22.1852 13.2866L21.9747 14.6895ZM16.8538 8.65671C16.5031 8.65671 16.1523 8.72686 15.8718 8.86716C15.521 9.07761 15.3106 9.4985 15.3807 9.84925C15.4509 10.3403 16.012 10.4806 16.2926 10.5507C16.5732 10.6209 16.924 10.6209 17.2747 10.691C18.1165 10.7612 19.0986 10.8313 20.5718 11.6731C20.2912 10.691 19.73 9.7791 18.7479 9.2179C18.1165 8.86716 17.415 8.65671 16.8538 8.65671Z" fill="#2447ED" stroke="#2447ED" stroke-width="0.6"/>
<path d="M23.6582 9.63881L23.1672 8.30598C22.4657 6.41195 21.8343 5.99105 21.203 5.50001C20.9224 5.28956 20.6418 5.07911 20.3612 4.79852C19.5895 4.02687 19.3791 3.11493 19.7298 2.27314C20.0806 1.43135 20.9224 0.940308 21.8343 0.940308C23.097 0.940308 24.3597 1.85225 24.991 3.25523C25.8328 5.00896 25.6224 6.97314 24.5 8.44628L23.6582 9.63881ZM21.8343 2.55374C21.5537 2.55374 21.203 2.69404 21.1328 2.97464C20.9925 3.25523 21.2731 3.60598 21.4836 3.81643C21.694 4.02687 21.9045 4.16717 22.1149 4.30747C22.6761 4.72837 23.3075 5.14926 24.0089 6.3418C24.1492 5.57016 24.0791 4.79852 23.7284 4.09702C23.2373 3.11493 22.4657 2.55374 21.8343 2.55374Z" fill="#2447ED" stroke="#2447ED" stroke-width="0.6"/>
<path d="M48 71.1597H36.2149V68.5642C36.2149 66.7403 34.7418 65.2672 32.9179 65.2672H16.1522C14.3284 65.2672 12.8552 66.7403 12.8552 68.5642V71.1597H1V57.8314H47.9299V71.1597H48ZM37.7582 69.6164H46.4567V59.3746H2.54328V69.6866H11.2418V68.5642C11.2418 65.8985 13.4164 63.7239 16.0821 63.7239H32.8478C35.5134 63.7239 37.6881 65.8985 37.6881 68.5642V69.6164H37.7582Z" fill="#2447ED" stroke="#2447ED" stroke-width="0.6"/>
<path d="M29.13 37.6985C28.9195 37.6985 28.7091 37.6284 28.5688 37.4881L19.3091 28.2284C19.0285 27.9478 19.0285 27.4567 19.3091 27.1761C19.5897 26.8955 20.0807 26.8955 20.3613 27.1761L29.621 36.4358C29.9016 36.7164 29.9016 37.2075 29.621 37.4881C29.5509 37.6284 29.3404 37.6985 29.13 37.6985Z" fill="#2447ED" stroke="#2447ED" stroke-width="0.6"/>
<path d="M19.8703 37.6985C19.6598 37.6985 19.4494 37.6284 19.3091 37.4881C19.0285 37.2075 19.0285 36.7164 19.3091 36.4358L28.5688 27.1761C28.8494 26.8955 29.3404 26.8955 29.621 27.1761C29.9016 27.4567 29.9016 27.9478 29.621 28.2284L20.4315 37.4881C20.221 37.6284 20.0807 37.6985 19.8703 37.6985Z" fill="#2447ED" stroke="#2447ED" stroke-width="0.6"/>
<path d="M29.13 46.9582C28.9195 46.9582 28.7091 46.8881 28.5688 46.7478L19.3091 37.4881C19.0285 37.2075 19.0285 36.7164 19.3091 36.4359C19.5897 36.1553 20.0807 36.1553 20.3613 36.4359L29.621 45.6956C29.9016 45.9761 29.9016 46.4672 29.621 46.7478C29.5509 46.8881 29.3404 46.9582 29.13 46.9582Z" fill="#2447ED" stroke="#2447ED" stroke-width="0.6"/>
<path d="M19.8703 46.9582C19.6598 46.9582 19.4494 46.8881 19.3091 46.7478C19.0285 46.4672 19.0285 45.9761 19.3091 45.6956L28.5688 36.4359C28.8494 36.1553 29.3404 36.1553 29.621 36.4359C29.9016 36.7164 29.9016 37.2075 29.621 37.4881L20.4315 46.7478C20.221 46.8881 20.0807 46.9582 19.8703 46.9582Z" fill="#2447ED" stroke="#2447ED" stroke-width="0.6"/>
<path d="M29.13 56.2881C28.9195 56.2881 28.7091 56.2179 28.5688 56.0776L19.3091 46.7478C19.0285 46.4672 19.0285 45.9762 19.3091 45.6956C19.5897 45.415 20.0807 45.415 20.3613 45.6956L29.621 54.9553C29.9016 55.2359 29.9016 55.7269 29.621 56.0075C29.5509 56.2179 29.3404 56.2881 29.13 56.2881Z" fill="#2447ED" stroke="#2447ED" stroke-width="0.6"/>
<path d="M19.8703 56.2881C19.6598 56.2881 19.4494 56.2179 19.3091 56.0776C19.0285 55.797 19.0285 55.306 19.3091 55.0254L28.5688 45.7657C28.8494 45.4851 29.3404 45.4851 29.621 45.7657C29.9016 46.0463 29.9016 46.5373 29.621 46.8179L20.4315 56.0075C20.221 56.2179 20.0807 56.2881 19.8703 56.2881Z" fill="#2447ED" stroke="#2447ED" stroke-width="0.6"/>
</svg>
