<svg width="60" height="60" viewBox="0 0 60 60" fill="none" xmlns="http://www.w3.org/2000/svg">
<path d="M3.57098 37.9887L1 39.9415L12.4525 46.1902C12.4525 46.2683 12.4525 46.2683 12.4525 46.3464L12.3746 46.7369L13.2316 47.5961L13.6212 47.518C13.6991 47.518 13.6991 47.518 13.777 47.518L20.0876 59L22.0353 56.4224C22.5806 55.7194 22.8923 54.8602 22.8144 54.1573L21.7236 43.925C24.7621 42.2066 27.8005 40.0977 29.3587 38.5355L35.7471 32.1306L51.7963 58.6876L54.0556 55.0165C54.7568 53.9229 54.9126 52.517 54.5231 51.3453L44.9403 22.9138L52.3416 15.4934C55.6917 12.1347 60.8336 4.16765 58.3406 1.66817C55.8475 -0.831313 47.8229 4.24576 44.4729 7.60443L37.0716 15.0248L8.79084 5.41739C7.5443 5.02684 6.21986 5.18306 5.12914 5.88604L1.38954 8.1512L27.7226 24.3978L21.412 30.8027C19.8538 32.3649 17.8282 35.4112 16.0363 38.4574L5.83032 37.2858C5.12914 37.2077 4.35006 37.442 3.57098 37.9887ZM5.90823 7.21389C6.6094 6.74524 7.4664 6.66713 8.24548 6.90145L35.8251 16.2745L28.8912 23.2262L4.42797 8.1512L5.90823 7.21389ZM45.5636 8.77606C49.3032 5.02684 55.9254 1.59006 57.1719 2.76169C58.3406 3.93332 54.9905 10.5726 51.173 14.3999L28.19 37.442L28.1121 37.5201C25.697 39.9415 19.698 43.4564 16.0363 45.0966L21.7236 39.3947C22.0353 39.0823 22.0353 38.6136 21.7236 38.3012C21.412 37.9887 20.9445 37.9887 20.6329 38.3012L14.9456 44.0031C16.6596 40.332 20.1655 34.3176 22.5806 31.8963L45.5636 8.77606ZM51.7963 55.6413L36.76 31.1152L43.6938 24.1635L53.0428 51.814C53.2765 52.5951 53.1986 53.4543 52.7312 54.1573L51.7963 55.6413ZM21.1783 54.3916C21.1783 54.6259 21.1004 55.0165 20.7108 55.5632L20.2434 56.1881L15.3351 47.1275C16.6596 46.6588 18.3736 45.7996 20.1655 44.7842L21.1783 54.3916ZM12.92 44.7061L3.96052 39.7852L4.58379 39.3166C5.05124 38.926 5.51869 38.8479 5.75241 38.8479L15.1793 39.8634C14.2444 41.738 13.3874 43.4564 12.92 44.7061Z" fill="#2447ED" stroke="#2447ED" stroke-width="0.8"/>
</svg>
