<svg width="79" height="44" viewBox="0 0 79 44" fill="none" xmlns="http://www.w3.org/2000/svg">
<path d="M77.7258 6.9334H68.9092C68.205 6.9334 67.635 7.50339 67.635 8.20759V8.26876H49.9934L49.1626 5.1164C49.0157 4.5566 48.5094 4.1667 47.9309 4.1667H40.6918V2.03115C40.6918 1.32695 40.1218 0.756958 39.4176 0.756958H29.2818C28.5776 0.756958 28.0076 1.32695 28.0076 2.03115V4.1667H20.7507C20.0465 4.1667 19.4765 4.73669 19.4765 5.44089V16.6623H9.29312C8.94314 16.6623 8.60845 16.8059 8.36805 17.0598L0.349129 25.5247C0.340634 25.5332 0.337237 25.5443 0.328742 25.5536C0.263333 25.6267 0.207269 25.7074 0.159699 25.7949C0.147806 25.8161 0.135914 25.8365 0.12572 25.8577C0.0798495 25.9546 0.0441721 26.0573 0.023785 26.1661C0.0203872 26.1831 0.0212366 26.2009 0.0186882 26.2179C0.00934415 26.2782 0 26.3385 0 26.4014V31.0471C0 32.9439 1.22832 35.2664 2.79728 36.3333L10.2624 41.4122C11.6996 42.39 14.1886 43.157 15.9274 43.157H56.897C58.6358 43.157 61.1248 42.3908 62.5621 41.4122L70.028 36.3333C71.5969 35.2664 72.8253 32.9448 72.8253 31.0471V26.4014C72.8253 26.3385 72.8159 26.2782 72.8066 26.2179C72.804 26.2009 72.8049 26.1831 72.8015 26.1661C72.7811 26.0573 72.7454 25.9546 72.6995 25.8577C72.6893 25.8356 72.6766 25.8161 72.6656 25.7949C72.618 25.7082 72.5619 25.6275 72.4965 25.5536C72.4889 25.5451 72.4846 25.5332 72.4761 25.5247L64.4572 17.0607C64.2168 16.8067 63.8821 16.6631 63.5321 16.6631H52.2071L51.6541 14.5667H67.635V14.6287C67.635 15.3329 68.205 15.9029 68.9092 15.9029H77.7258C78.43 15.9029 79 15.3329 79 14.6287V8.20759C79 7.50424 78.43 6.9334 77.7258 6.9334ZM30.556 3.3062H38.1434V4.16755H30.556V3.3062ZM2.54839 31.0471V27.6756H10.4985C8.80723 29.315 7.75049 31.606 7.75049 34.1417C7.75049 35.1126 7.90934 36.0453 8.19391 36.922L4.23032 34.2258C3.35028 33.6269 2.54839 32.1115 2.54839 31.0471ZM23.2319 34.1417C23.2319 37.7069 20.331 40.6078 16.7658 40.6078C13.2006 40.6078 10.2997 37.7069 10.2997 34.1417C10.2997 30.5765 13.2006 27.6756 16.7658 27.6756C20.331 27.6756 23.2319 30.5765 23.2319 34.1417ZM23.0323 40.6078C24.7236 38.9683 25.7795 36.6773 25.7795 34.1417C25.7795 31.606 24.7228 29.315 23.0315 27.6756H30.1449C28.4536 29.315 27.3969 31.606 27.3969 34.1417C27.3969 36.6773 28.4536 38.9683 30.1449 40.6078H23.0323ZM42.8792 34.1417C42.8792 37.7069 39.9782 40.6078 36.4131 40.6078C32.8479 40.6078 29.9469 37.7069 29.9469 34.1417C29.9469 30.5765 32.8479 27.6756 36.4131 27.6756C39.9782 27.6756 42.8792 30.5765 42.8792 34.1417ZM42.6795 40.6078C44.3708 38.9683 45.4267 36.6773 45.4267 34.1417C45.4267 31.606 44.37 29.315 42.6787 27.6756H49.7921C48.1008 29.315 47.0441 31.606 47.0441 34.1417C47.0441 36.6773 48.1008 38.9683 49.7921 40.6078H42.6795ZM62.5255 34.1417C62.5255 37.7069 59.6246 40.6078 56.0594 40.6078C52.4942 40.6078 49.5933 37.7069 49.5933 34.1417C49.5933 30.5765 52.4942 27.6756 56.0594 27.6756C59.6246 27.6756 62.5255 30.5765 62.5255 34.1417ZM70.2769 31.0471C70.2769 32.1115 69.475 33.6269 68.5949 34.2258L64.6313 36.922C64.9168 36.0453 65.0748 35.1118 65.0748 34.1417C65.0748 31.606 64.018 29.315 62.3268 27.6756H70.2769V31.0471ZM68.5881 25.1272H4.23712L9.84187 19.2115H20.7507H51.226H62.9842L68.5881 25.1272ZM22.024 16.6631V6.71594H29.281H39.4168H46.9489L47.7797 9.86574C47.7797 9.86659 47.7797 9.86744 47.7797 9.86829L48.7362 13.4946L49.5712 16.6631H22.024ZM50.9822 12.0183L50.9533 11.9079L50.6662 10.818H67.6359V12.0183H50.9822ZM76.4516 13.3545H70.1834V13.2925V9.54295V9.48179H76.4516V13.3545Z" fill="#2447ED"/>
</svg>
