<svg width="64" height="64" viewBox="0 0 64 64" fill="none" xmlns="http://www.w3.org/2000/svg">
<path d="M18.0119 49.5301L17.3019 48.8202L15.0133 51.1591C14.8921 51.2831 14.8063 51.4373 14.765 51.6057C14.7236 51.7741 14.7282 51.9505 14.7782 52.1165L16.0365 56.2838L11.4429 60.9781L9.50498 60.5874L13.1889 56.8226C13.279 56.7305 13.3499 56.6213 13.3974 56.5015C13.4448 56.3816 13.4678 56.2535 13.4651 56.1246C13.4624 55.9958 13.4339 55.8687 13.3814 55.751C13.329 55.6333 13.2535 55.5272 13.1595 55.439L8.6138 51.1719C8.42904 50.9982 8.18355 50.904 7.93006 50.9094C7.67658 50.9148 7.43532 51.0194 7.25811 51.2007L3.5312 55.0095L3.0506 53.1292L7.64456 48.4335L11.9788 49.495C12.1423 49.5353 12.3135 49.5323 12.4753 49.486C12.6372 49.4398 12.7842 49.3521 12.9017 49.2315L15.2813 46.7996L14.4626 45.9808C14.2789 45.793 14.1152 45.5868 13.9741 45.3653L11.9032 47.4818L7.56889 46.4203C7.40544 46.3801 7.23431 46.3832 7.07245 46.4294C6.91058 46.4756 6.76359 46.5633 6.64602 46.6838L1.28433 52.1638C1.16804 52.2827 1.08432 52.4295 1.04124 52.5902C0.998157 52.7508 0.997165 52.9198 1.03836 53.081L2.0809 57.1575C2.12343 57.324 2.20953 57.4763 2.33035 57.5986C2.45117 57.7209 2.60236 57.8088 2.7684 57.8534C2.93444 57.8979 3.10934 57.8974 3.27515 57.852C3.44096 57.8066 3.5917 57.7179 3.71189 57.595L7.97948 53.2337L11.1123 56.1745L6.8726 60.507C6.75075 60.6316 6.66478 60.7868 6.62373 60.9562C6.58268 61.1256 6.58808 61.3029 6.63937 61.4695C6.69065 61.636 6.78591 61.7857 6.91512 61.9027C7.04432 62.0197 7.20269 62.0996 7.37353 62.1342L11.5758 62.9813C11.7342 63.0131 11.8981 63.0048 12.0524 62.9572C12.2068 62.9096 12.3469 62.8243 12.4599 62.7089L17.8221 57.2294C17.9433 57.1054 18.0291 56.9512 18.0704 56.7828C18.1118 56.6144 18.1072 56.438 18.0572 56.272L16.799 52.1046L18.7539 50.1067C18.4842 49.9452 18.235 49.7516 18.0119 49.5301Z" fill="#2447ED" stroke="#2447ED" stroke-width="0.4"/>
<path d="M3.49343 6.87322C3.3688 6.75137 3.21361 6.6654 3.04422 6.62435C2.87482 6.5833 2.6975 6.5887 2.53092 6.63999C2.36433 6.69127 2.21467 6.78653 2.09769 6.91574C1.98071 7.04495 1.90075 7.20332 1.86622 7.37416L1.01904 11.5765C0.987173 11.7349 0.995406 11.8988 1.04299 12.0532C1.09058 12.2076 1.176 12.3476 1.2915 12.4606L6.77145 17.8228C6.8956 17.9437 7.04982 18.0293 7.21815 18.0706C7.38647 18.112 7.56279 18.1076 7.72884 18.0579L11.8961 16.7996L13.8963 18.7567C14.0542 18.4891 14.2443 18.2418 14.4624 18.0203L15.1804 17.3024L12.8417 15.014C12.6608 14.8368 12.4176 14.7376 12.1643 14.7377C12.0695 14.7378 11.9752 14.7517 11.8843 14.7789L7.71702 16.0371L3.02229 11.4436L3.41349 9.50561L7.17825 13.1895C7.36535 13.3699 7.61608 13.4692 7.87596 13.4658C8.00485 13.463 8.13189 13.4345 8.24966 13.382C8.36742 13.3296 8.47355 13.2541 8.56183 13.1602L12.8289 8.61443C13.0025 8.42961 13.0966 8.18415 13.0912 7.9307C13.0858 7.67725 12.9813 7.43601 12.8001 7.25874L8.99134 3.53179L10.8716 3.05073L15.5668 7.64521L14.5058 11.9795C14.4657 12.143 14.469 12.3141 14.5152 12.4759C14.5614 12.6377 14.649 12.7847 14.7693 12.9024L17.2009 15.2818L18.0119 14.4708C18.2001 14.2829 18.4071 14.1148 18.6294 13.9689L16.519 11.9038L17.58 7.56952C17.62 7.40606 17.6168 7.23498 17.5706 7.07314C17.5244 6.91131 17.4368 6.76431 17.3165 6.64665L11.837 1.28446C11.7181 1.16804 11.5712 1.08424 11.4105 1.04115C11.2497 0.998069 11.0806 0.99715 10.9194 1.03849L6.84288 2.0815C6.67638 2.12413 6.52421 2.21029 6.40199 2.33114C6.27978 2.45199 6.19192 2.60318 6.14743 2.76919C6.10294 2.93521 6.10343 3.11008 6.14883 3.27585C6.19424 3.44161 6.28293 3.59232 6.40581 3.71249L10.7671 7.98011L7.82628 11.113L3.49343 6.87322Z" fill="#2447ED" stroke="#2447ED" stroke-width="0.4"/>
<path d="M57.229 46.1787C57.1049 46.0576 56.9507 45.972 56.7823 45.9306C56.614 45.8893 56.4376 45.8938 56.2716 45.9436L52.1043 47.2018L50.0944 45.2351C49.9352 45.5063 49.743 45.7567 49.5222 45.9806L48.812 46.6908L51.1587 48.987C51.2829 49.1078 51.4372 49.1933 51.6055 49.2347C51.7738 49.276 51.95 49.2716 52.1161 49.2221L56.2834 47.9639L60.9777 52.5574L60.5865 54.4954L56.8222 50.8119C56.6341 50.633 56.384 50.534 56.1245 50.5357C55.9956 50.5385 55.8685 50.567 55.7508 50.6194C55.633 50.6719 55.5269 50.7473 55.4386 50.8413L51.1715 55.387C50.998 55.5718 50.9038 55.8173 50.9092 56.0708C50.9146 56.3242 51.0191 56.5655 51.2003 56.7427L55.0091 60.4697L53.1288 60.9503L48.4331 56.3558L49.4946 52.0215C49.5347 51.858 49.5315 51.6869 49.4853 51.5251C49.4391 51.3632 49.3515 51.2162 49.2311 51.0986L46.7915 48.7114L45.9735 49.5293C45.7879 49.715 45.584 49.8815 45.365 50.0263L47.4814 52.0972L46.42 56.4315C46.3799 56.5949 46.3831 56.766 46.4293 56.9278C46.4755 57.0897 46.5631 57.2367 46.6835 57.3543L52.1634 62.7165C52.2822 62.8329 52.4291 62.9167 52.5897 62.9597C52.7504 63.0028 52.9194 63.0038 53.0806 62.9625L57.1571 61.92C57.3236 61.8774 57.4759 61.7913 57.5982 61.6705C57.7205 61.5497 57.8084 61.3985 57.8529 61.2325C57.8975 61.0664 57.897 60.8915 57.8516 60.7257C57.8062 60.5599 57.7175 60.4092 57.5946 60.289L53.2333 56.0213L56.1742 52.8885L60.5066 57.1278C60.6312 57.2496 60.7864 57.3356 60.9558 57.3766C61.1251 57.4177 61.3025 57.4123 61.4691 57.361C61.6356 57.3097 61.7853 57.2144 61.9023 57.0852C62.0193 56.956 62.0992 56.7977 62.1338 56.6268L62.9809 52.4245C63.0128 52.2661 63.0046 52.1022 62.957 51.9478C62.9094 51.7934 62.824 51.6534 62.7085 51.5404L57.229 46.1787Z" fill="#2447ED" stroke="#2447ED" stroke-width="0.4"/>
<path d="M45.9727 14.4703L46.6907 15.1883L48.9867 12.8418C49.1079 12.7179 49.1936 12.5636 49.235 12.3953C49.2763 12.2269 49.2718 12.0505 49.2218 11.8844L47.9635 7.71711L52.557 3.02235L54.4955 3.41354L50.8116 7.17834C50.7214 7.27043 50.6505 7.37961 50.6031 7.49946C50.5557 7.61931 50.5326 7.74743 50.5354 7.8763C50.5381 8.00517 50.5665 8.1322 50.619 8.24993C50.6715 8.36767 50.7469 8.47374 50.8409 8.56193L55.3866 12.8291C55.5715 13.0026 55.8169 13.0968 56.0704 13.0914C56.3238 13.086 56.5651 12.9815 56.7423 12.8002L60.4692 8.99144L60.9498 10.8717L56.3554 15.5669L52.0216 14.5059C51.8582 14.4654 51.687 14.4684 51.525 14.5146C51.3631 14.5609 51.2161 14.6487 51.0987 14.7694L48.7114 17.209L49.5219 18.0194C49.7084 18.21 49.8743 18.4197 50.017 18.645L52.0973 16.5191L56.4311 17.5801C56.5945 17.6203 56.7657 17.6172 56.9275 17.571C57.0894 17.5247 57.2364 17.4371 57.354 17.3166L62.7161 11.8371C62.8324 11.7182 62.9161 11.5714 62.9592 11.4107C63.0023 11.2501 63.0033 11.0811 62.9621 10.9199L61.9195 6.84342C61.877 6.67686 61.7909 6.52461 61.6701 6.40232C61.5493 6.28003 61.3981 6.19209 61.232 6.14755C61.066 6.10301 60.8911 6.10346 60.7253 6.14886C60.5595 6.19425 60.4087 6.28296 60.2886 6.40588L56.021 10.7672L52.8881 7.82637L57.1278 3.49348C57.2497 3.36885 57.3357 3.21366 57.3767 3.04427C57.4178 2.87488 57.4124 2.69755 57.3611 2.53097C57.3098 2.36439 57.2145 2.21473 57.0853 2.09775C56.9561 1.98077 56.7978 1.9008 56.6269 1.86628L52.4241 1.0191C52.2657 0.987202 52.1019 0.995418 51.9475 1.043C51.7931 1.09059 51.653 1.17604 51.54 1.29157L46.1784 6.77152C46.0571 6.8955 45.9714 7.04972 45.93 7.21811C45.8887 7.38651 45.8933 7.56291 45.9433 7.72894L47.2015 11.8963L45.2411 13.8997C45.5069 14.06 45.7525 14.2516 45.9727 14.4703Z" fill="#2447ED" stroke="#2447ED" stroke-width="0.4"/>
<path d="M48.2603 41.9877C49.3136 40.2714 50.0891 38.3995 50.5582 36.4412C51.0428 36.4012 51.4946 36.1804 51.8239 35.8226C52.1533 35.4649 52.3361 34.9965 52.3361 34.5102V29.4903C52.3361 29.0041 52.1533 28.5356 51.8239 28.1779C51.4946 27.8201 51.0428 27.5993 50.5582 27.5593C50.0891 25.601 49.3136 23.7291 48.2603 22.0128C48.5748 21.6418 48.7382 21.1661 48.7182 20.6802C48.6982 20.1943 48.4962 19.7337 48.1523 19.3898L44.6028 15.8402C44.2589 15.4964 43.7983 15.2944 43.3124 15.2744C42.8265 15.2544 42.3508 15.4178 41.9798 15.7322C40.2635 14.679 38.3916 13.9035 36.4333 13.4344C36.3933 12.9498 36.1725 12.498 35.8148 12.1686C35.4571 11.8393 34.9886 11.6565 34.5024 11.6565H29.4825C28.9962 11.6565 28.5277 11.8393 28.17 12.1687C27.8123 12.498 27.5915 12.9498 27.5515 13.4344C25.5932 13.9035 23.7213 14.679 22.005 15.7322C21.634 15.4178 21.1584 15.2544 20.6725 15.2744C20.1865 15.2944 19.7259 15.4964 19.3821 15.8403L15.8325 19.3898C15.4886 19.7337 15.2866 20.1943 15.2666 20.6802C15.2466 21.1661 15.41 21.6418 15.7245 22.0128C14.6712 23.7291 13.8957 25.601 13.4267 27.5593C12.9421 27.5993 12.4902 27.8201 12.1609 28.1779C11.8315 28.5356 11.6487 29.0041 11.6487 29.4903V34.5102C11.6487 34.9965 11.8315 35.4649 12.1609 35.8227C12.4902 36.1804 12.9421 36.4012 13.4267 36.4412C13.8957 38.3995 14.6712 40.2714 15.7245 41.9877C15.41 42.3587 15.2466 42.8344 15.2666 43.3203C15.2867 43.8062 15.4886 44.2668 15.8325 44.6107L19.382 48.1603C19.7259 48.5042 20.1865 48.7061 20.6724 48.7261C21.1583 48.7461 21.634 48.5827 22.005 48.2683C23.7213 49.3215 25.5932 50.097 27.5515 50.5661C27.5916 51.0507 27.8124 51.5025 28.1701 51.8318C28.5278 52.1612 28.9962 52.344 29.4825 52.344H34.5024C34.9886 52.344 35.457 52.1612 35.8147 51.8318C36.1724 51.5025 36.3933 51.0507 36.4334 50.5661C38.3916 50.097 40.2635 49.3215 41.9798 48.2683C42.3508 48.5827 42.8265 48.7461 43.3124 48.7261C43.7983 48.7061 44.2589 48.5042 44.6028 48.1603L48.1524 44.6107C48.4962 44.2668 48.6982 43.8062 48.7182 43.3203C48.7382 42.8344 48.5747 42.3587 48.2603 41.9877ZM43.2328 46.7903L42.2148 45.7723C39.9482 47.4594 37.298 48.5571 34.5024 48.9669V50.4065H29.4825V48.9669C26.6868 48.5571 24.0367 47.4594 21.77 45.7723L20.7521 46.7903L17.2025 43.2406L18.2204 42.2227C16.5334 39.956 15.4356 37.3059 15.0259 34.5102H13.5862V29.4903H15.0259C15.4356 26.6946 16.5334 24.0445 18.2204 21.7778L17.2025 20.7598L20.7521 17.2102L21.77 18.2282C24.0366 16.5411 26.6868 15.4434 29.4825 15.0336V13.594H34.5024V15.0336C37.298 15.4434 39.9482 16.5411 42.2148 18.2282L43.2328 17.2102L46.7824 20.7598L45.7644 21.7778C47.4515 24.0445 48.5492 26.6946 48.959 29.4903H50.3986V34.5102H48.959C48.5492 37.3059 47.4515 39.956 45.7644 42.2227L46.7824 43.2407L43.2328 46.7903Z" fill="#2447ED" stroke="#2447ED" stroke-width="0.4"/>
<path d="M31.9923 16.9846C29.0225 16.9846 26.1194 17.8652 23.65 19.5151C21.1807 21.1651 19.2561 23.5102 18.1196 26.2539C16.9831 28.9977 16.6857 32.0168 17.2651 34.9296C17.8445 37.8424 19.2745 40.5179 21.3745 42.6179C23.4745 44.7179 26.15 46.148 29.0628 46.7274C31.9755 47.3068 34.9947 47.0094 37.7384 45.8729C40.4822 44.7364 42.8273 42.8118 44.4773 40.3425C46.1272 37.8732 47.0079 34.9701 47.0079 32.0002C47.0034 28.0192 45.42 24.2026 42.605 21.3876C39.79 18.5726 35.9733 16.9891 31.9923 16.9846ZM31.9923 45.0784C29.4057 45.0784 26.8772 44.3114 24.7265 42.8744C22.5758 41.4373 20.8995 39.3948 19.9096 37.0051C18.9198 34.6154 18.6608 31.9858 19.1654 29.4489C19.67 26.9119 20.9156 24.5816 22.7446 22.7526C24.5736 20.9236 26.9039 19.678 29.4408 19.1734C31.9777 18.6688 34.6073 18.9277 36.997 19.9176C39.3868 20.9075 41.4293 22.5837 42.8663 24.7344C44.3034 26.8851 45.0704 29.4136 45.0704 32.0002C45.0704 35.4688 43.6925 38.7953 41.2399 41.2479C38.7873 43.7005 35.4608 45.0784 31.9923 45.0784Z" fill="#2447ED" stroke="#2447ED" stroke-width="0.4"/>
<path d="M39.7349 26.443L32.9537 22.568C32.6609 22.4007 32.3296 22.3127 31.9924 22.3127C31.6552 22.3127 31.3239 22.4007 31.0311 22.568L24.2499 26.443C23.9533 26.6125 23.7069 26.8573 23.5354 27.1528C23.364 27.4482 23.2737 27.7837 23.2737 28.1252V35.8753C23.2737 36.2168 23.364 36.5523 23.5354 36.8477C23.7069 37.1432 23.9533 37.388 24.2499 37.5575L31.0311 41.4325C31.3239 41.5998 31.6552 41.6878 31.9924 41.6878C32.3296 41.6878 32.6609 41.5998 32.9537 41.4325L39.7349 37.5575C40.0315 37.388 40.278 37.1432 40.4494 36.8478C40.6209 36.5523 40.7112 36.2168 40.7112 35.8753V28.1252C40.7112 27.7837 40.6209 27.4482 40.4494 27.1527C40.278 26.8573 40.0315 26.6125 39.7349 26.443ZM38.7736 35.8753L31.9924 39.7503L25.2112 35.8753V28.1252L31.9924 24.2502L38.7737 28.1252L38.7736 35.8753Z" fill="#2447ED" stroke="#2447ED" stroke-width="0.4"/>
<path d="M28.1174 32.0003C28.1174 32.7666 28.3447 33.5158 28.7705 34.1531C29.1963 34.7903 29.8015 35.287 30.5095 35.5802C31.2176 35.8735 31.9967 35.9503 32.7484 35.8007C33.5001 35.6512 34.1905 35.2822 34.7324 34.7402C35.2744 34.1983 35.6434 33.5079 35.7929 32.7562C35.9424 32.0045 35.8657 31.2254 35.5724 30.5173C35.2791 29.8093 34.7825 29.2041 34.1452 28.7783C33.508 28.3525 32.7588 28.1252 31.9924 28.1252C30.9651 28.1264 29.9801 28.535 29.2537 29.2615C28.5272 29.9879 28.1186 30.9729 28.1174 32.0003ZM33.9299 32.0003C33.9299 32.3835 33.8163 32.7581 33.6034 33.0767C33.3905 33.3953 33.0879 33.6436 32.7339 33.7903C32.3798 33.9369 31.9903 33.9753 31.6144 33.9005C31.2386 33.8258 30.8934 33.6412 30.6224 33.3703C30.3514 33.0993 30.1669 32.7541 30.0921 32.3782C30.0174 32.0024 30.0557 31.6128 30.2024 31.2588C30.349 30.9048 30.5974 30.6022 30.916 30.3893C31.2346 30.1764 31.6092 30.0627 31.9924 30.0627C32.5063 30.0627 32.9991 30.2669 33.3624 30.6302C33.7258 30.9936 33.9299 31.4864 33.9299 32.0003Z" fill="#2447ED" stroke="#2447ED" stroke-width="0.4"/>
</svg>
