<svg width="1887" height="1295" viewBox="0 0 1887 1295" fill="none" xmlns="http://www.w3.org/2000/svg">
<path d="M1887 88.9081C1871.07 79.346 1854.11 70.6251 1836.3 62.6318L1729.03 202.864H1800.71L1887 88.9081ZM770.213 280.2H808.648L726.647 387.397H645.638C605.724 423.542 567.63 459.935 531.403 496.578H643.13L563.453 600.737H434.088C395.69 644.349 359.905 688.326 326.838 732.662H462.536L395.944 819.715H265.715C230.102 873.759 198.494 928.349 170.987 983.485H270.666L222.184 1046.86H141.29C123.765 1086.86 108.365 1127.14 95.1957 1167.72C-275.633 849.048 545.385 271.613 707.564 202.864H707.493C785.011 162.3 865.688 127.582 947.33 98.9079C891.998 186.597 852.034 225.178 770.213 280.2ZM1669.87 280.2L1587.87 387.397H1660.97L1742.14 280.2H1669.87ZM1770.4 37.7945C1745.11 29.8787 1718.5 23.2362 1690.76 17.8328L1549.22 202.864H1644.13L1770.4 37.7945ZM1490.06 280.2L1408.06 387.397H1502.97L1584.97 280.2H1490.06ZM1324.54 496.578L1244.86 600.737H1339.77L1419.45 496.578H1324.54ZM753.957 1242.48L722.511 1283.59C760.779 1278 798.317 1270.4 834.844 1260.81L848.868 1242.48H753.957ZM1614.62 6.38673C1577.76 2.37025 1539.4 0.239548 1499.83 0L1344.65 202.864H1464.32L1614.62 6.38673ZM1285.49 280.2L1203.49 387.397H1323.16L1405.16 280.2H1285.49ZM747.501 983.485L699.02 1046.86H818.691L867.173 983.485H747.501ZM549.381 1242.48L510.162 1293.75C550.607 1295.64 590.772 1295.39 630.391 1293.02L669.053 1242.48H549.381ZM1430.85 1.38144C1381.44 3.66524 1330.58 8.68853 1278.87 16.3306L1136.17 202.864H1276.73L1430.85 1.38144ZM1077.01 280.2L995.014 387.397H1135.57L1217.57 280.2H1077.01ZM730.899 732.662L664.307 819.715H804.861L871.453 732.662H730.899ZM539.029 983.485L490.546 1046.86H631.105L679.587 983.485H539.029ZM340.909 1242.48L320.673 1268.93C322.49 1269.39 324.222 1269.88 326.053 1270.34C365.967 1278.68 406.016 1284.86 445.916 1288.95L481.463 1242.48H340.909ZM1213.94 27.2166C1143.44 40.4512 1071.84 58.4568 1000.59 81.0877L907.433 202.864H1079.58L1213.94 27.2166ZM848.274 280.2L766.274 387.397H938.416L1020.42 280.2H848.274ZM682.758 496.578L603.081 600.737H775.22L854.895 496.578H682.758ZM502.159 732.662L435.569 819.715H607.711L674.303 732.662H502.159ZM310.289 983.485L261.807 1046.86H433.949L482.431 983.485H310.289ZM234.336 1242.48C247.025 1247.15 260.255 1251.62 274.056 1255.88L284.311 1242.48H234.336Z" fill="#1A3DE7"/>
</svg>
