<svg width="20" height="20" viewBox="0 0 20 20" fill="none" xmlns="http://www.w3.org/2000/svg">
<g id="24 / call / call-incoming">
<path id="icon" fill-rule="evenodd" clip-rule="evenodd" d="M9.14537 5.21209C9.63367 5.75337 9.47885 6.36657 9.04709 6.94841C8.94473 7.08636 8.82674 7.22228 8.68423 7.37206C8.61583 7.44395 8.5625 7.49801 8.45093 7.60968L7.81196 8.24901C7.72825 8.33271 8.29977 9.47477 9.40893 10.585C10.5175 11.6947 11.6595 12.2666 11.7436 12.1824L12.3821 11.5435C12.7338 11.1916 12.92 11.0217 13.1759 10.8539C13.7078 10.5049 14.2881 10.41 14.7774 10.8476C16.3753 11.9906 17.2795 12.6919 17.7224 13.1522C18.5864 14.0499 18.4732 15.4318 17.7273 16.2201C17.4687 16.4935 17.1408 16.8216 16.7534 17.195C14.4105 19.5393 9.46575 18.1127 5.67616 14.3193C1.88571 10.5252 0.459846 5.57997 2.79789 3.24067C3.21763 2.81433 3.35603 2.676 3.76483 2.2732C4.52593 1.52326 5.97157 1.40583 6.85037 2.27394C7.31262 2.73057 8.04957 3.67877 9.14537 5.21209ZM13.5601 12.7219L12.9214 13.3609C11.8359 14.4471 9.98707 13.5213 8.23081 11.7633C6.47335 10.0041 5.54851 8.15598 6.63447 7.07012L7.27282 6.43141C7.37497 6.32916 7.42169 6.2818 7.47778 6.22285C7.55419 6.14254 7.61698 6.07201 7.66726 6.00959C6.69612 4.65681 6.03595 3.81152 5.68006 3.45995C5.49627 3.27839 5.08472 3.31182 4.93363 3.4607C4.53067 3.85775 4.39822 3.99013 3.98016 4.41472C2.47657 5.91915 3.62762 9.91125 6.85427 13.1411C10.0799 16.3699 14.0714 17.5215 15.5865 16.0058C15.9678 15.638 16.2785 15.3271 16.5176 15.0744C16.6905 14.8917 16.7213 14.5148 16.5225 14.3082C16.1914 13.9642 15.3808 13.3321 13.9811 12.327C13.8791 12.4091 13.7536 12.5282 13.5601 12.7219ZM16.6666 9.16678V7.50011H13.6785L18.0892 3.08937L16.9107 1.91085L12.4999 6.3216V3.33344H10.8333V9.16678H16.6666Z" fill="#121212"/>
</g>
</svg>
