<svg width="33" height="45" viewBox="0 0 33 45" fill="none" xmlns="http://www.w3.org/2000/svg">
<path d="M0 4C0 1.79086 1.79086 0 4 0H29C31.2091 0 33 1.79086 33 4V32.747C33 34.1457 32.2694 35.4428 31.0732 36.1678L18.5732 43.7435C17.2989 44.5158 15.7011 44.5158 14.4268 43.7435L1.9268 36.1678C0.730617 35.4428 0 34.1457 0 32.747V4Z" fill="#2447ED"/>
<path fill-rule="evenodd" clip-rule="evenodd" d="M17.2916 19.4208V25.0416H15.7083V19.4208C13.9015 19.054 12.5416 17.4567 12.5416 15.5416C12.5416 13.3555 14.3138 11.5833 16.4999 11.5833C18.6861 11.5833 20.4583 13.3555 20.4583 15.5416C20.4583 17.4567 19.0984 19.054 17.2916 19.4208ZM14.1249 21.2078V22.8126C11.8031 23.1024 10.1666 23.7645 10.1666 24.25C10.1666 24.8888 13.0001 25.8333 16.4999 25.8333C19.9998 25.8333 22.8333 24.8888 22.8333 24.25C22.8333 23.7645 21.1967 23.1024 18.8749 22.8126V21.2078C22.0858 21.5597 24.4166 22.6412 24.4166 24.25C24.4166 26.2345 20.8701 27.4166 16.4999 27.4166C12.1297 27.4166 8.58325 26.2345 8.58325 24.25C8.58325 22.6412 10.914 21.5597 14.1249 21.2078ZM18.8749 15.5416C18.8749 16.8533 17.8116 17.9166 16.4999 17.9166C15.1882 17.9166 14.1249 16.8533 14.1249 15.5416C14.1249 14.23 15.1882 13.1666 16.4999 13.1666C17.8116 13.1666 18.8749 14.23 18.8749 15.5416Z" fill="white"/>
</svg>
