<svg width="20" height="20" viewBox="0 0 20 20" fill="none" xmlns="http://www.w3.org/2000/svg">
<path fill-rule="evenodd" clip-rule="evenodd" d="M3.33329 5.83329H4.99996V1.66663H15V5.83329H16.6666C17.5871 5.83329 18.3333 6.57948 18.3333 7.49996V14.1666C18.3333 15.0871 17.5871 15.8333 16.6666 15.8333H15V18.3333H4.99996V15.8333H3.33329C2.41282 15.8333 1.66663 15.0871 1.66663 14.1666V7.49996C1.66663 6.57948 2.41282 5.83329 3.33329 5.83329ZM13.3333 5.83329H6.66663V3.33329H13.3333V5.83329ZM16.6666 14.1666H15V12.5H4.99996V14.1666H3.33329V7.49996H16.6666V14.1666ZM13.3333 14.1666H6.66663V16.6666H13.3333V14.1666ZM15.8333 9.16663C15.8333 8.70639 15.4602 8.33329 15 8.33329C14.5397 8.33329 14.1666 8.70639 14.1666 9.16663C14.1666 9.62686 14.5397 9.99996 15 9.99996C15.4602 9.99996 15.8333 9.62686 15.8333 9.16663Z" fill="#121212"/>
</svg>
