<svg width="15" height="16" viewBox="0 0 15 16" fill="none" xmlns="http://www.w3.org/2000/svg">
<circle cx="7.5" cy="8" r="7.5" fill="#E0E0E0"/>
<path d="M7.288 3.776C5.524 3.776 4.528 4.856 4.492 6.392H5.872C5.908 5.384 6.436 4.976 7.312 4.976C8.188 4.976 8.656 5.552 8.656 6.188C8.656 6.908 8.272 7.244 7.696 7.652C6.796 8.36 6.436 8.756 6.436 9.752V10.076H7.816V9.752C7.816 9.104 8.02 8.912 8.584 8.504C9.4 7.892 10.048 7.4 10.048 6.188C10.048 4.784 9.064 3.776 7.288 3.776ZM7.888 12.5V10.892H6.34V12.5H7.888Z" fill="#121212"/>
</svg>
