<svg width="28" height="28" viewBox="0 0 28 28" fill="none" xmlns="http://www.w3.org/2000/svg">
<path d="M19.5885 8.58431H7.77783V9.17484H8.66363L9.19216 20.7582C9.20965 21.1378 9.37287 21.4961 9.64787 21.7585C9.92286 22.0208 10.2884 22.167 10.6685 22.1666H16.689C17.0691 22.167 17.4346 22.0208 17.7096 21.7585C17.9846 21.4961 18.1479 21.1378 18.1653 20.7582L18.7027 9.17484H19.5885V8.58431ZM17.5719 20.7316C17.5612 20.9593 17.4632 21.1741 17.2982 21.3314C17.1333 21.4887 16.914 21.5763 16.6861 21.5761H10.6774C10.4494 21.5763 10.2302 21.4887 10.0652 21.3314C9.90019 21.1741 9.80219 20.9593 9.79156 20.7316L9.26893 9.17484H18.1122L17.5719 20.7316ZM16.0453 6.8127H11.321V6.22217H16.0453V6.8127ZM12.7974 17.7376H12.2068V13.0133H12.7974V17.7376ZM15.1595 17.7376H14.569V13.0133H15.1595V17.7376Z" fill="#838383" stroke="#838383"/>
</svg>
